<?xml version="1.0" encoding="utf-8"?>
<!-- Generator: Adobe Illustrator 16.0.0, SVG Export Plug-In . SVG Version: 6.00 Build 0)  -->
<!DOCTYPE svg PUBLIC "-//W3C//DTD SVG 1.1//EN" "http://www.w3.org/Graphics/SVG/1.1/DTD/svg11.dtd">
<svg version="1.1" id="Layer_1" xmlns="http://www.w3.org/2000/svg" xmlns:xlink="http://www.w3.org/1999/xlink" x="0px" y="0px"
	 width="805.999px" height="319.499px" viewBox="25.815 20.309 805.999 319.499"
	 enable-background="new 25.815 20.309 805.999 319.499" xml:space="preserve">
<path fill="#6FA3CE" d="M141.836,129.197c-28.343,0-51.287,22.963-51.287,51.307c0,28.325,22.944,51.29,51.287,51.29
	c28.333,0,51.278-22.965,51.278-51.29C193.116,152.16,170.17,129.197,141.836,129.197z M129.957,152.754l-5.443-11.706
	c0,0,3.694-2.666,6.463-3.008c2.759-0.313,4.51,18.489,4.51,18.489l2.454-0.241c0,0-1.315-5.63-1.121-7.86
	c0.232-2.175,4.844-2.306,4.844-2.306c0.221,0.499,1.138,12.919,1.905,18.631c-1.713-0.371-3.555-0.334-5.332,0.241
	c-1.797,0.574-3.343,1.564-4.519,2.888c-2.314-3.784-6.5-10.571-7.861-12.517C123.901,152.698,129.957,152.754,129.957,152.754z
	 M157.55,221.403c-3.472,1.073-12.148-14.369-18.389-27.037l6.508-3.574l-7.925,0.776c-2.823-5.888-4.954-10.749-5.527-12.415
	c-1.825-5.38,1.045-11.111,6.481-12.807c5.425-1.694,11.314,1.307,13.167,6.687c0.286,0.812,0.731,2.526,1.278,4.796l-3.354,1.372
	l3.808,0.341c1.156,4.973,2.627,11.89,3.795,18.695l-5.574,1.935l0.166,0.836l5.768-0.361
	C159.402,211.051,160.107,220.588,157.55,221.403z"/>
<g>
	<path fill="#6FA3CE" d="M711.971,164.991c-3.156,11.604-6.789,8.635-9.51,18.679c-1.541,5.729-0.924,11.392,1.291,15.59
		c-1.254-3.936-1.365-8.637-0.084-13.407c2.84-10.61,6.725-7.456,10.045-19.737c0.342-1.309,0.877-2.498,1.539-3.609
		c1.051-2.641,2.242-4.273,3.457-5.703C715.596,158.188,712.993,161.129,711.971,164.991z"/>
	<path fill="#6FA3CE" d="M717.473,128.602c-28.217,0-51.092,23.04-51.092,51.431c0,28.408,22.875,51.428,51.092,51.428
		c28.213,0,51.109-23.022,51.109-51.428C768.583,151.642,745.686,128.602,717.473,128.602z M726.704,150.138l1.182-8.394
		l2.324,0.764l-1.895,8.429c3.174,3.027,4.547,4.057,4.523,8.502c0,0-2.902-1.764-3.76-2.877c-0.85-1.121-1.43-2.525-1.43-2.525
		s-1.125,3.973-2.199,4.717c-1.041,0.799-2.045,1.736-2.045,1.736s-1.053-3.139,0.062-5.377c1.09-2.207,1.072-3.025,1.072-3.025
		s-1.883,2.322-4.291,2.006c-2.416-0.305-3.521-0.074-3.521-0.074C720.204,149.962,721.649,149.73,726.704,150.138z
		 M733.946,169.857c-3.691,13.72,2.166,12.839-1.033,24.72c-3.258,12.025-13.861,19.693-23.705,17.176
		c-9.834-2.508-15.176-14.324-11.926-26.346c3.182-11.837,7.84-8.273,11.539-21.982c1.078-3.947,3.65-7.104,6.898-8.906l-0.111,0.15
		c0,0,1.219-0.279,3.865,0.057c2.648,0.326,4.205-1.59,4.205-1.59s-0.443,0.883-1.232,2.648c-0.795,1.746,0.508,5.932,0.508,5.932
		s1.113-1.031,2.266-1.875c1.137-0.838,2.49-4.316,2.49-4.316s0.525,0.666,1.457,1.893c0.914,1.262,4.152,3.186,4.152,3.186
		l-0.02-0.158C734.534,163.265,734.823,166.57,733.946,169.857z"/>
</g>
<path fill="#FFFFFF" d="M138.235,164.994c1.778-0.573,3.621-0.61,5.333-0.241c-0.77-5.711-1.685-18.13-1.906-18.631
	c0,0-4.612,0.131-4.844,2.306c-0.194,2.232,1.121,7.86,1.121,7.86l-2.454,0.241c0,0-1.751-18.804-4.509-18.489
	c-2.771,0.342-6.463,3.008-6.463,3.008l5.444,11.704c0,0-6.056-0.055-4.101,2.612c1.361,1.944,5.546,8.73,7.861,12.517
	C134.893,166.559,136.438,165.568,138.235,164.994z"/>
<rect x="32.887" y="27.255" fill="none" stroke="#6FA3CE" stroke-width="14" stroke-miterlimit="10" width="792.002" height="305.555"/>
<text transform="matrix(1 0 0 1 242.8579 184.9741)" fill="#6FA3CE" font-family="'AbrahamLincoln'" font-size="145">VECKANS</text>
<ellipse transform="matrix(-0.0047 -1 1 -0.0047 323.9351 536.3724)" fill="none" cx="428.896" cy="106.978" rx="106.987" ry="171.528"/>
<text transform="matrix(0.7833 0.1704 -0.2125 0.9772 330.5591 266.0923)" fill="#6FA3CE" font-family="'Lato-Light'" font-size="76.677">M</text>
<text transform="matrix(0.8006 0.04 -0.0499 0.9988 393.1499 278.1196)" fill="#6FA3CE" font-family="'Lato-Light'" font-size="76.6776">E</text>
<text transform="matrix(0.7984 -0.0718 0.0895 0.996 435.5513 280.1479)" fill="#6FA3CE" font-family="'Lato-Light'" font-size="76.6741">N</text>
<text transform="matrix(0.7784 -0.1914 0.2388 0.9711 489.0259 274.4624)" fill="#6FA3CE" font-family="'Lato-Light'" font-size="76.6741">Y</text>
<rect fill="none" width="854.958" height="360.114"/>
</svg>
